<svg width="95" height="112" viewBox="0 0 95 112" fill="none" xmlns="http://www.w3.org/2000/svg">
<path d="M53.4933 16.4161V18.9632C53.4933 30.0413 46.5563 36.1614 36.421 36.1614C24.6144 36.1614 16.741 28.226 16.741 18.1309C16.741 8.03587 23.9229 0 36.9108 0C43.2067 0 47.2911 1.47085 50.5903 3.58027V8.91839C47.3919 6.42152 42.6232 4.60628 36.9612 4.60628C26.6818 4.60628 21.8555 10.4897 21.8555 17.9874C21.8555 26.0233 27.5606 31.6628 36.5146 31.6628C43.7974 31.6628 48.422 27.6951 48.7678 20.7354H26.9267L27.9568 16.4233H53.4933V16.4161Z" fill="#2354F9"/>
<path d="M75.2624 8.20085V12.9506C74.081 12.0179 72.5539 11.53 70.6881 11.53C66.755 11.53 63.7007 14.7659 63.6503 20.7928V35.4439H58.9248V7.51206H63.6503V13.9838C65.0766 9.32731 67.9796 7.02417 71.4733 7.02417C73.0005 7.02417 74.2323 7.41879 75.2624 8.20085" fill="#2354F9"/>
<path d="M27.7984 49.8869H4.86958C5.26577 56.0645 9.59509 59.738 16.2872 59.738C20.566 59.738 24.4559 57.973 26.8619 55.8636V60.3264C24.0598 62.6295 19.8241 64.1004 15.5956 64.1004C6.39672 64.1004 0 57.973 0 49.0546C0 41.069 5.51069 34.3533 14.7096 34.3533C22.8279 34.3533 27.7984 39.0098 27.7984 47.1461V49.8869ZM5.02085 46.3066H23.325C23.0801 41.4062 19.8817 38.7084 14.5151 38.7084C9.14847 38.7084 5.80604 41.8941 5.02085 46.3066Z" fill="#2354F9"/>
<path d="M61.5757 56.0932H38.6469C39.0431 62.2708 43.3724 65.9443 50.0645 65.9443C54.3434 65.9443 58.2333 64.1793 60.6393 62.0771V66.5327C57.8371 68.8358 53.6014 70.3067 49.373 70.3067C40.1741 70.3067 33.7773 64.1793 33.7773 55.2609C33.7773 47.2753 39.288 40.5596 48.4869 40.5596C56.6053 40.5596 61.5757 45.2161 61.5757 53.3524V56.1004V56.0932ZM38.7982 52.5129H57.1023C56.8574 47.6125 53.6591 44.9147 48.2924 44.9147C42.9258 44.9147 39.5834 48.1004 38.7982 52.5129" fill="#2354F9"/>
<path d="M68.9737 28.5129V63.7919H73.6992V49.0403L88.4592 63.7919H95L78.7633 48.1147L94.0131 35.86H87.3283L73.6992 47.4259V28.5129H68.9737Z" fill="#2354F9"/>
<path d="M31.5226 66.2672V101.546H26.8475V95.1246C24.8809 99.0923 21.1423 102.278 15.2859 102.278C7.51326 102.278 1.95215 95.9569 1.95215 87.4762C1.95215 78.5075 8.10395 72.5309 15.927 72.5309C21.0919 72.5309 24.7297 75.1784 26.8475 79.2968V66.26H31.5226V66.2672ZM26.9988 87.1892C26.9988 81.2627 23.0657 76.8501 16.7626 76.8501C10.4595 76.8501 6.77851 81.3129 6.77851 87.3829C6.77851 93.4528 10.618 97.9658 16.6185 97.9658C22.9144 97.9658 26.9988 93.2591 26.9988 87.182" fill="#2354F9"/>
<path d="M61.4244 94.7013V111.067H56.7493V106.999C54.8331 110.378 51.289 112 47.0605 112C41.0096 112 36.7811 107.932 36.7811 102.687C36.7811 97.4421 41.0096 93.6179 47.2622 93.6179C51.5916 93.6179 54.934 95.1892 56.7565 97.8798V95.2825C56.7565 89.3058 52.8234 86.4143 47.608 86.4143C43.6245 86.4143 40.7719 87.7847 38.3587 90.4323V85.582C40.671 83.7166 43.7685 82.052 48.494 82.052C56.3171 82.052 61.4316 86.5148 61.4316 94.6941M56.7565 102.486C56.7565 99.4511 53.7094 97.148 49.0343 97.148C44.3592 97.148 41.5571 99.4511 41.5571 102.587C41.5571 105.722 44.2152 108.126 48.8398 108.126C53.4645 108.126 56.7637 105.629 56.7637 102.493" fill="#2354F9"/>
<path d="M90.93 71.3972L72.0352 108.635H66.8702L73.0725 97.0761L61.1146 71.3972H66.1787L75.6297 92.1255L85.9091 71.3972H90.93Z" fill="#2354F9"/>
<path d="M93.0334 95.5264C93.0334 97.2699 91.5639 98.6475 89.5901 98.6475C87.6164 98.6475 86.1469 97.2771 86.1469 95.5264C86.1469 93.7758 87.6164 92.3982 89.5901 92.3982C91.5639 92.3982 93.0334 93.7829 93.0334 95.5264ZM92.5652 95.5264C92.5652 94.0197 91.3262 92.843 89.5973 92.843C87.8685 92.843 86.6295 94.0197 86.6295 95.5264C86.6295 97.0332 87.8757 98.2027 89.5973 98.2027C91.319 98.2027 92.5652 97.0332 92.5652 95.5264ZM89.9431 95.8565L91.1101 97.0834H90.2889L89.0139 95.6771V97.0834H88.3944V93.9838H89.9863C90.6202 93.9838 91.0525 94.3641 91.0525 94.9022C91.0525 95.4906 90.6274 95.8565 89.9503 95.8565H89.9431V95.8565ZM89.0211 95.4116H89.7702C90.2096 95.4116 90.4041 95.2538 90.4041 94.9453C90.4041 94.6511 90.2096 94.5076 89.8351 94.5076H89.0283V95.4116H89.0211Z" fill="#2354F9"/>
<path d="M93.0334 95.5264C93.0334 97.2699 91.5639 98.6475 89.5901 98.6475C87.6164 98.6475 86.1469 97.2771 86.1469 95.5264C86.1469 93.7758 87.6164 92.3982 89.5901 92.3982C91.5639 92.3982 93.0334 93.7829 93.0334 95.5264ZM92.5652 95.5264C92.5652 94.0197 91.3262 92.843 89.5973 92.843C87.8685 92.843 86.6295 94.0197 86.6295 95.5264C86.6295 97.0332 87.8757 98.2027 89.5973 98.2027C91.319 98.2027 92.5652 97.0332 92.5652 95.5264ZM89.9431 95.8565L91.1101 97.0834H90.2889L89.0139 95.6771V97.0834H88.3944V93.9838H89.9863C90.6202 93.9838 91.0525 94.3641 91.0525 94.9022C91.0525 95.4906 90.6274 95.8565 89.9503 95.8565H89.9431V95.8565ZM89.0211 95.4116H89.7702C90.2096 95.4116 90.4041 95.2538 90.4041 94.9453C90.4041 94.6511 90.2096 94.5076 89.8351 94.5076H89.0283V95.4116H89.0211Z" fill="#2354F9" stroke="#2354F9" stroke-width="0.03" stroke-miterlimit="10"/>
</svg>
